<svg width="100" height="100" xmlns="http://www.w3.org/2000/svg">

 <g>
  <title>background</title>
  <rect fill="none" id="canvas_background" height="402" width="582" y="-1" x="-1"/>
 </g>
 <g>
  <title>Layer 1</title>
  <path id="svg_6" fill="#ea96b2" d="m89.925,43.68c-0.611,-1.884 -2.702,-2.465 -4.33,-2.793c1.123,-1.223 2.473,-2.922 1.861,-4.807c-0.826,-2.542 -4.204,-5.54 -11.137,-5.047c-4.067,0.288 -14.01,6.974 -19.57,12.705c3.757,-6.928 6.639,-18.199 5.479,-22.873c-1.654,-6.667 -5.474,-9.033 -8.242,-9.033c-1.982,0 -3.18,1.809 -3.996,3.256c-0.816,-1.447 -2.014,-3.256 -3.996,-3.256c-2.769,0 -6.588,2.366 -8.242,9.032c-0.98,3.951 2.293,15.455 6.018,22.518c-5.433,-5.708 -15.244,-11.917 -20.043,-12.259c-6.946,-0.497 -10.312,2.507 -11.138,5.05c-0.612,1.884 0.738,3.582 1.862,4.805c-1.628,0.329 -3.718,0.91 -4.332,2.795c-0.855,2.633 0.215,6.997 6.044,10.629c2.36,1.472 8.462,1.996 13.386,1.996l0,0c2.365,0 6.275,-0.114 9.861,-0.737c-7.172,3.456 -16.077,10.939 -17.826,15.249c-2.58,6.366 -0.879,10.525 1.361,12.154c0.551,0.399 1.21,0.602 1.958,0.602c1.107,0 2.227,-0.447 3.188,-0.889c-0.19,1.65 -0.284,3.818 1.319,4.984c0.996,0.723 2.291,1.105 3.744,1.105c1.82,0 4.727,-0.619 8.232,-3.569c3.112,-2.616 7.218,-13.819 8.362,-21.721c1.05,7.808 5.339,18.573 9.015,21.665c3.507,2.949 6.413,3.568 8.233,3.568c1.453,0 2.748,-0.383 3.744,-1.106c1.604,-1.165 1.51,-3.332 1.319,-4.982c0.962,0.44 2.08,0.888 3.188,0.888l0,0c0.748,0 1.406,-0.202 1.959,-0.603c2.238,-1.628 3.938,-5.788 1.358,-12.151c-1.363,-3.365 -10.675,-11.033 -18.131,-14.688c3.444,0.635 7.087,0.723 8.8,0.723l0,0c5.08,0 11.595,-0.678 14.647,-2.579c5.832,-3.633 6.9,-7.997 6.045,-10.631z"/>
  <path id="svg_7" fill="#FFFFFF" d="m50.036,55.232c-1.512,0 -2.742,-1.23 -2.742,-2.742c0,-1.513 1.23,-2.743 2.742,-2.743s2.742,1.23 2.742,2.743c0,1.512 -1.23,2.742 -2.742,2.742z"/>
  <path id="svg_8" fill="#EA96B2" d="m40.663,21.586c1.324,-5.343 4.066,-6.754 5.33,-6.754c0.289,0 0.839,0.735 1.635,2.184c0.635,1.158 1.185,2.157 2.361,2.157s1.727,-1 2.361,-2.157c0.796,-1.449 1.346,-2.184 1.635,-2.184c1.264,0 4.006,1.412 5.33,6.755c1.131,4.557 -2.965,18.388 -6.956,23.491c-0.965,1.233 -1.708,1.67 -2.052,1.67c-0.247,0 -0.928,-0.336 -1.914,-1.597c-4.425,-5.66 -8.539,-20.305 -7.73,-23.565z"/>
  <path id="svg_9" fill="#EA96B2" d="m29.548,53.397c-6.123,0 -10.57,-0.776 -11.799,-1.542c-4.671,-2.911 -5.167,-5.954 -4.777,-7.156c0.09,-0.275 0.958,-0.571 2.582,-0.88c1.297,-0.247 2.418,-0.46 2.782,-1.581c0.363,-1.119 -0.418,-1.95 -1.322,-2.912c-1.132,-1.204 -1.662,-1.954 -1.573,-2.228c0.366,-1.126 2.213,-3.031 6.809,-3.031c0.404,0 0.824,0.015 1.264,0.046c4.684,0.333 16.572,8.504 20.191,13.876c0.875,1.298 1.062,2.14 0.955,2.467c-0.401,1.234 -5.876,2.941 -15.112,2.941z"/>
  <path id="svg_10" fill="#EA96B2" d="m39.456,83.002c-2.196,1.848 -4.434,2.865 -6.302,2.865c-1.085,0 -1.707,-0.334 -1.98,-0.533c-0.233,-0.17 -0.247,-1.088 -0.04,-2.727c0.166,-1.311 0.311,-2.442 -0.643,-3.135c-0.301,-0.22 -0.67,-0.336 -1.065,-0.336c-0.643,0 -1.292,0.307 -2.112,0.693c-0.75,0.354 -1.775,0.836 -2.41,0.836c-0.121,0 -0.181,-0.02 -0.195,-0.029c-1.022,-0.744 -2.41,-3.498 -0.344,-8.599c2.078,-5.124 16.195,-15.228 21.275,-15.228c0.518,0 0.734,0.116 0.803,0.166c0.199,0.146 0.553,0.818 0.609,2.418c0.255,7.182 -5.026,21.448 -7.596,23.609z"/>
  <path id="svg_11" fill="#EA96B2" d="m75.786,71.982c2.068,5.1 0.68,7.854 -0.342,8.598c-0.014,0.01 -0.074,0.029 -0.195,0.029l0,0c-0.636,0 -1.662,-0.482 -2.412,-0.836c-0.82,-0.387 -1.469,-0.691 -2.111,-0.691c-0.396,0 -0.764,0.115 -1.066,0.334c-0.952,0.692 -0.809,1.824 -0.643,3.135c0.208,1.639 0.195,2.557 -0.039,2.727c-0.273,0.199 -0.896,0.533 -1.98,0.533c-1.868,0 -4.106,-1.018 -6.303,-2.864c-3.594,-3.023 -8.409,-16.622 -8.18,-23.095c0.057,-1.564 0.4,-2.354 0.678,-2.557c0.045,-0.032 0.227,-0.138 0.706,-0.138c5.567,0 20.429,11.226 21.887,14.825z"/>
  <path id="svg_12" fill="#EA96B2" d="m82.296,51.766c-2.041,1.271 -7.289,2.125 -13.061,2.125c-8.667,0 -13.271,-1.74 -13.652,-2.917c-0.077,-0.235 0.032,-0.987 0.927,-2.315c4.015,-5.959 16.673,-14.396 20.022,-14.634c0.439,-0.031 0.861,-0.046 1.266,-0.046c4.595,0 6.439,1.904 6.805,3.028c0.09,0.275 -0.439,1.025 -1.572,2.229c-0.904,0.962 -1.686,1.793 -1.321,2.912c0.364,1.12 1.484,1.333 2.782,1.58c1.623,0.309 2.492,0.605 2.581,0.879c0.39,1.203 -0.105,4.247 -4.777,7.159z"/>
 </g>
</svg>